<svg xmlns="http://www.w3.org/2000/svg" viewBox="0 0 1280 720" width="1280" height="720" data-pptx-page-role="content">
  <defs>
    <marker id="arrow-blue-02" markerWidth="9" markerHeight="9" refX="8" refY="4.5" orient="auto"><path d="M0,0 L9,4.5 L0,9 z" fill="#2F6BFF"/></marker>
    <marker id="arrow-purple-02" markerWidth="9" markerHeight="9" refX="8" refY="4.5" orient="auto"><path d="M0,0 L9,4.5 L0,9 z" fill="#7562A8"/></marker>
    <marker id="arrow-red-02" markerWidth="9" markerHeight="9" refX="8" refY="4.5" orient="auto"><path d="M0,0 L9,4.5 L0,9 z" fill="#B45F4A"/></marker>
  </defs>
  <rect id="page-background-02" data-pptx-role="background" x="0" y="0" width="1280" height="720" fill="#F7F5EF"/>
  <g id="header-02" data-pptx-bounds="56 38 1168 82">
    <text x="56" y="76" font-family="Georgia, Times New Roman, serif" font-size="40" font-weight="700" fill="#183153">Latent Variables and Selection Change the Target</text>
    <text x="1224" y="104" text-anchor="end" font-family="Consolas, Courier New, monospace" font-size="18" fill="#5F6875">PROBLEM FRAME</text>
    <line x1="56" y1="120" x2="1224" y2="120" stroke="#CBD2DC" stroke-width="1.5"/>
  </g>
  <g id="causal-system-02" data-pptx-bounds="56 142 640 410">
    <text x="56" y="164" font-family="Arial, Helvetica, sans-serif" font-size="18" font-weight="700" fill="#5F6875">UNDERLYING CAUSAL SYSTEM</text>
    <circle cx="207" cy="245" r="38" fill="#E9EDF5" stroke="#7562A8" stroke-width="3" stroke-dasharray="7 6"/>
    <text x="207" y="253" text-anchor="middle" font-family="Georgia, Times New Roman, serif" font-size="30" font-weight="700" fill="#7562A8">U</text>
    <text x="207" y="300" text-anchor="middle" font-family="Arial, Helvetica, sans-serif" font-size="18" fill="#5F6875">unobserved</text>
    <circle cx="98" cy="388" r="45" fill="#FFFFFF" stroke="#2F6BFF" stroke-width="3"/>
    <text x="98" y="396" text-anchor="middle" font-family="Arial, Helvetica, sans-serif" font-size="24" font-weight="700" fill="#183153">X</text>
    <circle cx="316" cy="388" r="45" fill="#FFFFFF" stroke="#2F6BFF" stroke-width="3"/>
    <text x="316" y="396" text-anchor="middle" font-family="Arial, Helvetica, sans-serif" font-size="24" font-weight="700" fill="#183153">Y</text>
    <circle cx="520" cy="388" r="45" fill="#FFF7ED" stroke="#B45F4A" stroke-width="3"/>
    <text x="520" y="396" text-anchor="middle" font-family="Arial, Helvetica, sans-serif" font-size="24" font-weight="700" fill="#183153">S</text>
    <text x="520" y="455" text-anchor="middle" font-family="Arial, Helvetica, sans-serif" font-size="18" fill="#B45F4A">conditioned selection</text>
    <line x1="183" y1="275" x2="125" y2="347" stroke="#7562A8" stroke-width="3" marker-end="url(#arrow-purple-02)"/>
    <line x1="231" y1="275" x2="289" y2="347" stroke="#7562A8" stroke-width="3" marker-end="url(#arrow-purple-02)"/>
    <line x1="139" y1="388" x2="469" y2="388" stroke="#B45F4A" stroke-width="3" marker-end="url(#arrow-red-02)"/>
    <line x1="361" y1="374" x2="472" y2="356" stroke="#B45F4A" stroke-width="3" marker-end="url(#arrow-red-02)"/>
    <text x="56" y="505" font-family="Arial, Helvetica, sans-serif" font-size="22" fill="#1A2433">Marginalizing U and conditioning on S can induce a<tspan x="56" dy="28">mixed ancestral relation among observed variables.</tspan></text>
  </g>
  <g id="pag-target-02" data-pptx-bounds="716 142 508 386">
    <rect x="716" y="142" width="508" height="386" rx="16" fill="#183153"/>
    <text x="746" y="177" font-family="Arial, Helvetica, sans-serif" font-size="18" font-weight="700" fill="#E9EDF5">RIGHT OUTPUT TARGET</text>
    <text x="746" y="223" font-family="Georgia, Times New Roman, serif" font-size="32" font-weight="700" fill="#FFFFFF">PAG, not one unique DAG</text>
    <line x1="755" y1="286" x2="900" y2="286" stroke="#FFFFFF" stroke-width="3"/>
    <circle cx="755" cy="286" r="8" fill="#183153" stroke="#FFFFFF" stroke-width="3"/>
    <polygon points="900,286 882,276 882,296" fill="#FFFFFF"/>
    <text x="929" y="294" font-family="Arial, Helvetica, sans-serif" font-size="24" fill="#FFFFFF">circle → arrow</text>
    <line x1="755" y1="344" x2="900" y2="344" stroke="#FFFFFF" stroke-width="3"/>
    <line x1="755" y1="330" x2="755" y2="358" stroke="#FFFFFF" stroke-width="3"/>
    <polygon points="900,344 882,334 882,354" fill="#FFFFFF"/>
    <text x="929" y="352" font-family="Arial, Helvetica, sans-serif" font-size="24" fill="#FFFFFF">tail → arrow</text>
    <line x1="755" y1="402" x2="900" y2="402" stroke="#FFFFFF" stroke-width="3"/>
    <polygon points="755,402 773,392 773,412" fill="#FFFFFF"/>
    <polygon points="900,402 882,392 882,412" fill="#FFFFFF"/>
    <text x="929" y="410" font-family="Arial, Helvetica, sans-serif" font-size="24" fill="#FFFFFF">bidirected</text>
    <text x="746" y="463" font-family="Arial, Helvetica, sans-serif" font-size="18" fill="#E9EDF5">Adjacency ≠ direct effect<tspan x="746" dy="26">Circle = unresolved endpoint</tspan><tspan x="746" dy="26">Sample CI test ≠ exact oracle</tspan></text>
  </g>
  <g id="claim-02" data-pptx-bounds="56 558 1168 76">
    <rect x="56" y="558" width="1168" height="76" rx="12" fill="#E9EDF5"/>
    <text x="80" y="585" font-family="Arial, Helvetica, sans-serif" font-size="28" font-weight="700" fill="#183153">The graph records invariant ancestral constraints—<tspan x="80" dy="31">and preserves uncertainty where the data cannot decide.</tspan></text>
  </g>
  <g id="footer-02" data-pptx-bounds="56 650 1168 38">
    <text x="56" y="674" font-family="Arial, Helvetica, sans-serif" font-size="16" fill="#5F6875">Spirtes et al. (2000), Ch. 6 · Richardson &amp; Spirtes (2002) · Zhang (2008)</text>
    <text x="1224" y="674" text-anchor="end" font-family="Consolas, Courier New, monospace" font-size="16" fill="#5F6875">02 / 15</text>
  </g>
</svg>
